<svg width="199" height="52" viewBox="0 0 199 52" fill="none" xmlns="http://www.w3.org/2000/svg">
<mask id="path-1-outside-1_201_4" maskUnits="userSpaceOnUse" x="0" y="0" width="199" height="52" fill="black">
<rect fill="white" width="199" height="52"/>
<path d="M1 3.25H3.25V48.25H1V3.25ZM14.5 3.25H16.75V37H33.3438V39.25H16.75V41.5H33.3438V43.75H16.75V46H33.3438V48.25H14.5V3.25ZM10 3.25H12.25V48.25H10V3.25ZM5.5 3.25H7.75V48.25H5.5V3.25Z"/>
<path d="M55.5 19.4062C53.75 21.1562 52.875 23.2708 52.875 25.75C52.875 28.2292 53.75 30.3542 55.5 32.125C57.2708 33.875 59.3958 34.75 61.875 34.75C64.3542 34.75 66.4688 33.875 68.2188 32.125C69.9896 30.3542 70.875 28.2292 70.875 25.75C70.875 23.2708 69.9896 21.1562 68.2188 19.4062C66.4688 17.6354 64.3542 16.75 61.875 16.75C59.3958 16.75 57.2708 17.6354 55.5 19.4062ZM53.9062 33.7188C51.7188 31.5104 50.625 28.8542 50.625 25.75C50.625 22.6458 51.7188 20 53.9062 17.8125C56.1146 15.6042 58.7708 14.5 61.875 14.5C64.9792 14.5 67.625 15.6042 69.8125 17.8125C72.0208 20 73.125 22.6458 73.125 25.75C73.125 28.8542 72.0208 31.5104 69.8125 33.7188C67.625 35.9062 64.9792 37 61.875 37C58.7708 37 56.1146 35.9062 53.9062 33.7188ZM52.3125 16.2188C49.6875 18.8646 48.375 22.0417 48.375 25.75C48.375 29.4583 49.6875 32.6354 52.3125 35.2812C54.9583 37.9271 58.1458 39.25 61.875 39.25C65.6042 39.25 68.7812 37.9271 71.4062 35.2812C74.0521 32.6354 75.375 29.4583 75.375 25.75C75.375 22.0417 74.0521 18.8646 71.4062 16.2188C68.7812 13.5729 65.6042 12.25 61.875 12.25C58.1458 12.25 54.9583 13.5729 52.3125 16.2188ZM48.2188 33.6562C46.8229 31.2396 46.125 28.6042 46.125 25.75C46.125 22.8958 46.8229 20.2604 48.2188 17.8438C49.6354 15.4271 51.5521 13.5208 53.9688 12.125C56.3854 10.7083 59.0208 10 61.875 10C64.7292 10 67.3646 10.7083 69.7812 12.125C72.1979 13.5208 74.1042 15.4271 75.5 17.8438C76.9167 20.2604 77.625 22.8958 77.625 25.75C77.625 28.6042 76.9167 31.2396 75.5 33.6562C74.1042 36.0729 72.1979 37.9896 69.7812 39.4062C67.3646 40.8021 64.7292 41.5 61.875 41.5C59.0208 41.5 56.3854 40.8021 53.9688 39.4062C51.5521 37.9896 49.6354 36.0729 48.2188 33.6562ZM45.2812 18.7812C44.3438 20.9896 43.875 23.3125 43.875 25.75C43.875 28.1875 44.3438 30.5208 45.2812 32.75C46.2396 34.9583 47.5208 36.875 49.125 38.5C50.75 40.1042 52.6667 41.3854 54.875 42.3438C57.1042 43.2812 59.4375 43.75 61.875 43.75C64.3125 43.75 66.6354 43.2812 68.8438 42.3438C71.0729 41.3854 72.9896 40.1042 74.5938 38.5C76.2188 36.875 77.5 34.9583 78.4375 32.75C79.3958 30.5208 79.875 28.1875 79.875 25.75C79.875 23.3125 79.3958 20.9896 78.4375 18.7812C77.5 16.5521 76.2188 14.6354 74.5938 13.0312C72.9896 11.4062 71.0729 10.125 68.8438 9.1875C66.6354 8.22917 64.3125 7.75 61.875 7.75C59.4375 7.75 57.1042 8.22917 54.875 9.1875C52.6667 10.125 50.75 11.4062 49.125 13.0312C47.5208 14.6354 46.2396 16.5521 45.2812 18.7812ZM43.2188 33.625C42.1562 31.125 41.625 28.5 41.625 25.75C41.625 23 42.1562 20.375 43.2188 17.875C44.3021 15.375 45.7396 13.2292 47.5312 11.4375C49.3438 9.625 51.5 8.1875 54 7.125C56.5 6.04167 59.125 5.5 61.875 5.5C64.625 5.5 67.25 6.04167 69.75 7.125C72.25 8.1875 74.3958 9.625 76.1875 11.4375C78 13.2292 79.4375 15.375 80.5 17.875C81.5833 20.375 82.125 23 82.125 25.75C82.125 28.5 81.5833 31.125 80.5 33.625C79.4375 36.125 78 38.2812 76.1875 40.0938C74.3958 41.8854 72.25 43.3229 69.75 44.4062C67.25 45.4688 64.625 46 61.875 46C59.125 46 56.5 45.4688 54 44.4062C51.5 43.3229 49.3438 41.8854 47.5312 40.0938C45.7396 38.2812 44.3021 36.125 43.2188 33.625ZM41.1562 17.0312C39.9688 19.8021 39.375 22.7083 39.375 25.75C39.375 28.7917 39.9688 31.7083 41.1562 34.5C42.3438 37.2708 43.9375 39.6667 45.9375 41.6875C47.9583 43.6875 50.3542 45.2812 53.125 46.4688C55.9167 47.6562 58.8333 48.25 61.875 48.25C64.9167 48.25 67.8229 47.6562 70.5938 46.4688C73.3854 45.2812 75.7812 43.6875 77.7812 41.6875C79.8021 39.6667 81.4062 37.2708 82.5938 34.5C83.7812 31.7083 84.375 28.7917 84.375 25.75C84.375 22.7083 83.7812 19.8021 82.5938 17.0312C81.4062 14.2396 79.8021 11.8438 77.7812 9.84375C75.7812 7.82292 73.3854 6.21875 70.5938 5.03125C67.8229 3.84375 64.9167 3.25 61.875 3.25C58.8333 3.25 55.9167 3.84375 53.125 5.03125C50.3542 6.21875 47.9583 7.82292 45.9375 9.84375C43.9375 11.8438 42.3438 14.2396 41.1562 17.0312ZM39.0938 35.375C37.7812 32.3125 37.125 29.1042 37.125 25.75C37.125 22.3958 37.7812 19.1979 39.0938 16.1562C40.4062 13.0938 42.1667 10.4583 44.375 8.25C46.5833 6.04167 49.2083 4.28125 52.25 2.96875C55.3125 1.65625 58.5208 1 61.875 1C65.2292 1 68.4271 1.65625 71.4688 2.96875C74.5312 4.28125 77.1667 6.04167 79.375 8.25C81.5833 10.4583 83.3438 13.0938 84.6562 16.1562C85.9688 19.1979 86.625 22.3958 86.625 25.75C86.625 29.1042 85.9688 32.3125 84.6562 35.375C83.3438 38.4167 81.5833 41.0417 79.375 43.25C77.1667 45.4583 74.5312 47.2188 71.4688 48.5312C68.4271 49.8438 65.2292 50.5 61.875 50.5C58.5208 50.5 55.3125 49.8438 52.25 48.5312C49.2083 47.2188 46.5833 45.4583 44.375 43.25C42.1667 41.0417 40.4062 38.4167 39.0938 35.375Z"/>
<path d="M128.219 25.4375H130.469V48.25C127.135 49.75 123.688 50.5 120.125 50.5C116.771 50.5 113.562 49.8438 110.5 48.5312C107.458 47.2188 104.833 45.4583 102.625 43.25C100.417 41.0417 98.6562 38.4167 97.3438 35.375C96.0312 32.3125 95.375 29.1042 95.375 25.75C95.375 22.3958 96.0312 19.1979 97.3438 16.1562C98.6562 13.0938 100.417 10.4583 102.625 8.25C104.833 6.04167 107.458 4.28125 110.5 2.96875C113.562 1.65625 116.771 1 120.125 1C123.958 1 127.562 1.83333 130.938 3.5C134.312 5.14583 137.156 7.41667 139.469 10.3125L137.656 11.6562C135.552 9.05208 132.969 7 129.906 5.5C126.865 4 123.604 3.25 120.125 3.25C117.083 3.25 114.167 3.84375 111.375 5.03125C108.604 6.21875 106.208 7.82292 104.188 9.84375C102.188 11.8438 100.594 14.2396 99.4062 17.0312C98.2188 19.8021 97.625 22.7083 97.625 25.75C97.625 28.7917 98.2188 31.7083 99.4062 34.5C100.594 37.2708 102.188 39.6667 104.188 41.6875C106.208 43.6875 108.604 45.2812 111.375 46.4688C114.167 47.6562 117.083 48.25 120.125 48.25C122.938 48.25 125.635 47.75 128.219 46.75V44.4375C125.615 45.4792 122.917 46 120.125 46C117.375 46 114.75 45.4688 112.25 44.4062C109.75 43.3229 107.594 41.8854 105.781 40.0938C103.99 38.2812 102.552 36.125 101.469 33.625C100.406 31.125 99.875 28.5 99.875 25.75C99.875 23 100.406 20.375 101.469 17.875C102.552 15.375 103.99 13.2292 105.781 11.4375C107.594 9.625 109.75 8.1875 112.25 7.125C114.75 6.04167 117.375 5.5 120.125 5.5C123.271 5.5 126.219 6.17708 128.969 7.53125C131.74 8.88542 134.073 10.75 135.969 13.125L134.219 14.5312C132.531 12.4271 130.458 10.7708 128 9.5625C125.542 8.35417 122.917 7.75 120.125 7.75C117.688 7.75 115.354 8.22917 113.125 9.1875C110.917 10.125 109 11.4062 107.375 13.0312C105.771 14.6354 104.49 16.5521 103.531 18.7812C102.594 20.9896 102.125 23.3125 102.125 25.75C102.125 28.1875 102.594 30.5208 103.531 32.75C104.49 34.9583 105.771 36.875 107.375 38.5C109 40.1042 110.917 41.3854 113.125 42.3438C115.354 43.2812 117.688 43.75 120.125 43.75C123 43.75 125.698 43.1667 128.219 42V39.6875C125.698 40.8958 123 41.5 120.125 41.5C117.271 41.5 114.635 40.8021 112.219 39.4062C109.802 37.9896 107.885 36.0729 106.469 33.6562C105.073 31.2396 104.375 28.6042 104.375 25.75C104.375 22.8958 105.073 20.2604 106.469 17.8438C107.885 15.4271 109.802 13.5208 112.219 12.125C114.635 10.7083 117.271 10 120.125 10C122.562 10 124.854 10.5312 127 11.5938C129.167 12.6354 130.979 14.0833 132.438 15.9375L130.656 17.3125C129.406 15.7292 127.854 14.4896 126 13.5938C124.167 12.6979 122.208 12.25 120.125 12.25C116.396 12.25 113.208 13.5729 110.562 16.2188C107.938 18.8646 106.625 22.0417 106.625 25.75C106.625 29.4583 107.938 32.6354 110.562 35.2812C113.208 37.9271 116.396 39.25 120.125 39.25C123.042 39.25 125.74 38.5417 128.219 37.125V34.8438C125.781 36.2812 123.083 37 120.125 37C117.021 37 114.365 35.9062 112.156 33.7188C109.969 31.5104 108.875 28.8542 108.875 25.75C108.875 22.6458 109.969 20 112.156 17.8125C114.365 15.6042 117.021 14.5 120.125 14.5C121.875 14.5 123.521 14.8854 125.062 15.6562C126.604 16.4062 127.896 17.4375 128.938 18.75L127.125 20.125C125.312 17.875 122.979 16.75 120.125 16.75C117.646 16.75 115.521 17.6354 113.75 19.4062C112 21.1562 111.125 23.2708 111.125 25.75C111.125 28.2292 112 30.3542 113.75 32.125C115.521 33.875 117.646 34.75 120.125 34.75C123.312 34.75 126.01 33.8646 128.219 32.0938V25.4375ZM141.719 25.4375H143.969V48.25H141.719V25.4375ZM137.219 25.4375H139.469V48.25H137.219V25.4375ZM132.719 25.4375H134.969V48.25H132.719V25.4375Z"/>
<path d="M166.688 19.4062C164.938 21.1562 164.062 23.2708 164.062 25.75C164.062 28.2292 164.938 30.3542 166.688 32.125C168.458 33.875 170.583 34.75 173.062 34.75C175.542 34.75 177.656 33.875 179.406 32.125C181.177 30.3542 182.062 28.2292 182.062 25.75C182.062 23.2708 181.177 21.1562 179.406 19.4062C177.656 17.6354 175.542 16.75 173.062 16.75C170.583 16.75 168.458 17.6354 166.688 19.4062ZM165.094 33.7188C162.906 31.5104 161.812 28.8542 161.812 25.75C161.812 22.6458 162.906 20 165.094 17.8125C167.302 15.6042 169.958 14.5 173.062 14.5C176.167 14.5 178.812 15.6042 181 17.8125C183.208 20 184.312 22.6458 184.312 25.75C184.312 28.8542 183.208 31.5104 181 33.7188C178.812 35.9062 176.167 37 173.062 37C169.958 37 167.302 35.9062 165.094 33.7188ZM163.5 16.2188C160.875 18.8646 159.562 22.0417 159.562 25.75C159.562 29.4583 160.875 32.6354 163.5 35.2812C166.146 37.9271 169.333 39.25 173.062 39.25C176.792 39.25 179.969 37.9271 182.594 35.2812C185.24 32.6354 186.562 29.4583 186.562 25.75C186.562 22.0417 185.24 18.8646 182.594 16.2188C179.969 13.5729 176.792 12.25 173.062 12.25C169.333 12.25 166.146 13.5729 163.5 16.2188ZM159.406 33.6562C158.01 31.2396 157.312 28.6042 157.312 25.75C157.312 22.8958 158.01 20.2604 159.406 17.8438C160.823 15.4271 162.74 13.5208 165.156 12.125C167.573 10.7083 170.208 10 173.062 10C175.917 10 178.552 10.7083 180.969 12.125C183.385 13.5208 185.292 15.4271 186.688 17.8438C188.104 20.2604 188.812 22.8958 188.812 25.75C188.812 28.6042 188.104 31.2396 186.688 33.6562C185.292 36.0729 183.385 37.9896 180.969 39.4062C178.552 40.8021 175.917 41.5 173.062 41.5C170.208 41.5 167.573 40.8021 165.156 39.4062C162.74 37.9896 160.823 36.0729 159.406 33.6562ZM156.469 18.7812C155.531 20.9896 155.062 23.3125 155.062 25.75C155.062 28.1875 155.531 30.5208 156.469 32.75C157.427 34.9583 158.708 36.875 160.312 38.5C161.938 40.1042 163.854 41.3854 166.062 42.3438C168.292 43.2812 170.625 43.75 173.062 43.75C175.5 43.75 177.823 43.2812 180.031 42.3438C182.26 41.3854 184.177 40.1042 185.781 38.5C187.406 36.875 188.688 34.9583 189.625 32.75C190.583 30.5208 191.062 28.1875 191.062 25.75C191.062 23.3125 190.583 20.9896 189.625 18.7812C188.688 16.5521 187.406 14.6354 185.781 13.0312C184.177 11.4062 182.26 10.125 180.031 9.1875C177.823 8.22917 175.5 7.75 173.062 7.75C170.625 7.75 168.292 8.22917 166.062 9.1875C163.854 10.125 161.938 11.4062 160.312 13.0312C158.708 14.6354 157.427 16.5521 156.469 18.7812ZM154.406 33.625C153.344 31.125 152.812 28.5 152.812 25.75C152.812 23 153.344 20.375 154.406 17.875C155.49 15.375 156.927 13.2292 158.719 11.4375C160.531 9.625 162.688 8.1875 165.188 7.125C167.688 6.04167 170.312 5.5 173.062 5.5C175.812 5.5 178.438 6.04167 180.938 7.125C183.438 8.1875 185.583 9.625 187.375 11.4375C189.188 13.2292 190.625 15.375 191.688 17.875C192.771 20.375 193.312 23 193.312 25.75C193.312 28.5 192.771 31.125 191.688 33.625C190.625 36.125 189.188 38.2812 187.375 40.0938C185.583 41.8854 183.438 43.3229 180.938 44.4062C178.438 45.4688 175.812 46 173.062 46C170.312 46 167.688 45.4688 165.188 44.4062C162.688 43.3229 160.531 41.8854 158.719 40.0938C156.927 38.2812 155.49 36.125 154.406 33.625ZM152.344 17.0312C151.156 19.8021 150.562 22.7083 150.562 25.75C150.562 28.7917 151.156 31.7083 152.344 34.5C153.531 37.2708 155.125 39.6667 157.125 41.6875C159.146 43.6875 161.542 45.2812 164.312 46.4688C167.104 47.6562 170.021 48.25 173.062 48.25C176.104 48.25 179.01 47.6562 181.781 46.4688C184.573 45.2812 186.969 43.6875 188.969 41.6875C190.99 39.6667 192.594 37.2708 193.781 34.5C194.969 31.7083 195.562 28.7917 195.562 25.75C195.562 22.7083 194.969 19.8021 193.781 17.0312C192.594 14.2396 190.99 11.8438 188.969 9.84375C186.969 7.82292 184.573 6.21875 181.781 5.03125C179.01 3.84375 176.104 3.25 173.062 3.25C170.021 3.25 167.104 3.84375 164.312 5.03125C161.542 6.21875 159.146 7.82292 157.125 9.84375C155.125 11.8438 153.531 14.2396 152.344 17.0312ZM150.281 35.375C148.969 32.3125 148.312 29.1042 148.312 25.75C148.312 22.3958 148.969 19.1979 150.281 16.1562C151.594 13.0938 153.354 10.4583 155.562 8.25C157.771 6.04167 160.396 4.28125 163.438 2.96875C166.5 1.65625 169.708 1 173.062 1C176.417 1 179.615 1.65625 182.656 2.96875C185.719 4.28125 188.354 6.04167 190.562 8.25C192.771 10.4583 194.531 13.0938 195.844 16.1562C197.156 19.1979 197.812 22.3958 197.812 25.75C197.812 29.1042 197.156 32.3125 195.844 35.375C194.531 38.4167 192.771 41.0417 190.562 43.25C188.354 45.4583 185.719 47.2188 182.656 48.5312C179.615 49.8438 176.417 50.5 173.062 50.5C169.708 50.5 166.5 49.8438 163.438 48.5312C160.396 47.2188 157.771 45.4583 155.562 43.25C153.354 41.0417 151.594 38.4167 150.281 35.375Z"/>
</mask>
<path d="M1 3.25H3.25V48.25H1V3.25ZM14.5 3.25H16.75V37H33.3438V39.25H16.75V41.5H33.3438V43.75H16.75V46H33.3438V48.25H14.5V3.25ZM10 3.25H12.25V48.25H10V3.25ZM5.5 3.25H7.75V48.25H5.5V3.25Z" fill="black"/>
<path d="M55.5 19.4062C53.75 21.1562 52.875 23.2708 52.875 25.75C52.875 28.2292 53.75 30.3542 55.5 32.125C57.2708 33.875 59.3958 34.75 61.875 34.75C64.3542 34.75 66.4688 33.875 68.2188 32.125C69.9896 30.3542 70.875 28.2292 70.875 25.75C70.875 23.2708 69.9896 21.1562 68.2188 19.4062C66.4688 17.6354 64.3542 16.75 61.875 16.75C59.3958 16.75 57.2708 17.6354 55.5 19.4062ZM53.9062 33.7188C51.7188 31.5104 50.625 28.8542 50.625 25.75C50.625 22.6458 51.7188 20 53.9062 17.8125C56.1146 15.6042 58.7708 14.5 61.875 14.5C64.9792 14.5 67.625 15.6042 69.8125 17.8125C72.0208 20 73.125 22.6458 73.125 25.75C73.125 28.8542 72.0208 31.5104 69.8125 33.7188C67.625 35.9062 64.9792 37 61.875 37C58.7708 37 56.1146 35.9062 53.9062 33.7188ZM52.3125 16.2188C49.6875 18.8646 48.375 22.0417 48.375 25.75C48.375 29.4583 49.6875 32.6354 52.3125 35.2812C54.9583 37.9271 58.1458 39.25 61.875 39.25C65.6042 39.25 68.7812 37.9271 71.4062 35.2812C74.0521 32.6354 75.375 29.4583 75.375 25.75C75.375 22.0417 74.0521 18.8646 71.4062 16.2188C68.7812 13.5729 65.6042 12.25 61.875 12.25C58.1458 12.25 54.9583 13.5729 52.3125 16.2188ZM48.2188 33.6562C46.8229 31.2396 46.125 28.6042 46.125 25.75C46.125 22.8958 46.8229 20.2604 48.2188 17.8438C49.6354 15.4271 51.5521 13.5208 53.9688 12.125C56.3854 10.7083 59.0208 10 61.875 10C64.7292 10 67.3646 10.7083 69.7812 12.125C72.1979 13.5208 74.1042 15.4271 75.5 17.8438C76.9167 20.2604 77.625 22.8958 77.625 25.75C77.625 28.6042 76.9167 31.2396 75.5 33.6562C74.1042 36.0729 72.1979 37.9896 69.7812 39.4062C67.3646 40.8021 64.7292 41.5 61.875 41.5C59.0208 41.5 56.3854 40.8021 53.9688 39.4062C51.5521 37.9896 49.6354 36.0729 48.2188 33.6562ZM45.2812 18.7812C44.3438 20.9896 43.875 23.3125 43.875 25.75C43.875 28.1875 44.3438 30.5208 45.2812 32.75C46.2396 34.9583 47.5208 36.875 49.125 38.5C50.75 40.1042 52.6667 41.3854 54.875 42.3438C57.1042 43.2812 59.4375 43.75 61.875 43.75C64.3125 43.75 66.6354 43.2812 68.8438 42.3438C71.0729 41.3854 72.9896 40.1042 74.5938 38.5C76.2188 36.875 77.5 34.9583 78.4375 32.75C79.3958 30.5208 79.875 28.1875 79.875 25.75C79.875 23.3125 79.3958 20.9896 78.4375 18.7812C77.5 16.5521 76.2188 14.6354 74.5938 13.0312C72.9896 11.4062 71.0729 10.125 68.8438 9.1875C66.6354 8.22917 64.3125 7.75 61.875 7.75C59.4375 7.75 57.1042 8.22917 54.875 9.1875C52.6667 10.125 50.75 11.4062 49.125 13.0312C47.5208 14.6354 46.2396 16.5521 45.2812 18.7812ZM43.2188 33.625C42.1562 31.125 41.625 28.5 41.625 25.75C41.625 23 42.1562 20.375 43.2188 17.875C44.3021 15.375 45.7396 13.2292 47.5312 11.4375C49.3438 9.625 51.5 8.1875 54 7.125C56.5 6.04167 59.125 5.5 61.875 5.5C64.625 5.5 67.25 6.04167 69.75 7.125C72.25 8.1875 74.3958 9.625 76.1875 11.4375C78 13.2292 79.4375 15.375 80.5 17.875C81.5833 20.375 82.125 23 82.125 25.75C82.125 28.5 81.5833 31.125 80.5 33.625C79.4375 36.125 78 38.2812 76.1875 40.0938C74.3958 41.8854 72.25 43.3229 69.75 44.4062C67.25 45.4688 64.625 46 61.875 46C59.125 46 56.5 45.4688 54 44.4062C51.5 43.3229 49.3438 41.8854 47.5312 40.0938C45.7396 38.2812 44.3021 36.125 43.2188 33.625ZM41.1562 17.0312C39.9688 19.8021 39.375 22.7083 39.375 25.75C39.375 28.7917 39.9688 31.7083 41.1562 34.5C42.3438 37.2708 43.9375 39.6667 45.9375 41.6875C47.9583 43.6875 50.3542 45.2812 53.125 46.4688C55.9167 47.6562 58.8333 48.25 61.875 48.25C64.9167 48.25 67.8229 47.6562 70.5938 46.4688C73.3854 45.2812 75.7812 43.6875 77.7812 41.6875C79.8021 39.6667 81.4062 37.2708 82.5938 34.5C83.7812 31.7083 84.375 28.7917 84.375 25.75C84.375 22.7083 83.7812 19.8021 82.5938 17.0312C81.4062 14.2396 79.8021 11.8438 77.7812 9.84375C75.7812 7.82292 73.3854 6.21875 70.5938 5.03125C67.8229 3.84375 64.9167 3.25 61.875 3.25C58.8333 3.25 55.9167 3.84375 53.125 5.03125C50.3542 6.21875 47.9583 7.82292 45.9375 9.84375C43.9375 11.8438 42.3438 14.2396 41.1562 17.0312ZM39.0938 35.375C37.7812 32.3125 37.125 29.1042 37.125 25.75C37.125 22.3958 37.7812 19.1979 39.0938 16.1562C40.4062 13.0938 42.1667 10.4583 44.375 8.25C46.5833 6.04167 49.2083 4.28125 52.25 2.96875C55.3125 1.65625 58.5208 1 61.875 1C65.2292 1 68.4271 1.65625 71.4688 2.96875C74.5312 4.28125 77.1667 6.04167 79.375 8.25C81.5833 10.4583 83.3438 13.0938 84.6562 16.1562C85.9688 19.1979 86.625 22.3958 86.625 25.75C86.625 29.1042 85.9688 32.3125 84.6562 35.375C83.3438 38.4167 81.5833 41.0417 79.375 43.25C77.1667 45.4583 74.5312 47.2188 71.4688 48.5312C68.4271 49.8438 65.2292 50.5 61.875 50.5C58.5208 50.5 55.3125 49.8438 52.25 48.5312C49.2083 47.2188 46.5833 45.4583 44.375 43.25C42.1667 41.0417 40.4062 38.4167 39.0938 35.375Z" fill="black"/>
<path d="M128.219 25.4375H130.469V48.25C127.135 49.75 123.688 50.5 120.125 50.5C116.771 50.5 113.562 49.8438 110.5 48.5312C107.458 47.2188 104.833 45.4583 102.625 43.25C100.417 41.0417 98.6562 38.4167 97.3438 35.375C96.0312 32.3125 95.375 29.1042 95.375 25.75C95.375 22.3958 96.0312 19.1979 97.3438 16.1562C98.6562 13.0938 100.417 10.4583 102.625 8.25C104.833 6.04167 107.458 4.28125 110.5 2.96875C113.562 1.65625 116.771 1 120.125 1C123.958 1 127.562 1.83333 130.938 3.5C134.312 5.14583 137.156 7.41667 139.469 10.3125L137.656 11.6562C135.552 9.05208 132.969 7 129.906 5.5C126.865 4 123.604 3.25 120.125 3.25C117.083 3.25 114.167 3.84375 111.375 5.03125C108.604 6.21875 106.208 7.82292 104.188 9.84375C102.188 11.8438 100.594 14.2396 99.4062 17.0312C98.2188 19.8021 97.625 22.7083 97.625 25.75C97.625 28.7917 98.2188 31.7083 99.4062 34.5C100.594 37.2708 102.188 39.6667 104.188 41.6875C106.208 43.6875 108.604 45.2812 111.375 46.4688C114.167 47.6562 117.083 48.25 120.125 48.25C122.938 48.25 125.635 47.75 128.219 46.75V44.4375C125.615 45.4792 122.917 46 120.125 46C117.375 46 114.75 45.4688 112.25 44.4062C109.75 43.3229 107.594 41.8854 105.781 40.0938C103.99 38.2812 102.552 36.125 101.469 33.625C100.406 31.125 99.875 28.5 99.875 25.75C99.875 23 100.406 20.375 101.469 17.875C102.552 15.375 103.99 13.2292 105.781 11.4375C107.594 9.625 109.75 8.1875 112.25 7.125C114.75 6.04167 117.375 5.5 120.125 5.5C123.271 5.5 126.219 6.17708 128.969 7.53125C131.74 8.88542 134.073 10.75 135.969 13.125L134.219 14.5312C132.531 12.4271 130.458 10.7708 128 9.5625C125.542 8.35417 122.917 7.75 120.125 7.75C117.688 7.75 115.354 8.22917 113.125 9.1875C110.917 10.125 109 11.4062 107.375 13.0312C105.771 14.6354 104.49 16.5521 103.531 18.7812C102.594 20.9896 102.125 23.3125 102.125 25.75C102.125 28.1875 102.594 30.5208 103.531 32.75C104.49 34.9583 105.771 36.875 107.375 38.5C109 40.1042 110.917 41.3854 113.125 42.3438C115.354 43.2812 117.688 43.75 120.125 43.75C123 43.75 125.698 43.1667 128.219 42V39.6875C125.698 40.8958 123 41.5 120.125 41.5C117.271 41.5 114.635 40.8021 112.219 39.4062C109.802 37.9896 107.885 36.0729 106.469 33.6562C105.073 31.2396 104.375 28.6042 104.375 25.75C104.375 22.8958 105.073 20.2604 106.469 17.8438C107.885 15.4271 109.802 13.5208 112.219 12.125C114.635 10.7083 117.271 10 120.125 10C122.562 10 124.854 10.5312 127 11.5938C129.167 12.6354 130.979 14.0833 132.438 15.9375L130.656 17.3125C129.406 15.7292 127.854 14.4896 126 13.5938C124.167 12.6979 122.208 12.25 120.125 12.25C116.396 12.25 113.208 13.5729 110.562 16.2188C107.938 18.8646 106.625 22.0417 106.625 25.75C106.625 29.4583 107.938 32.6354 110.562 35.2812C113.208 37.9271 116.396 39.25 120.125 39.25C123.042 39.25 125.74 38.5417 128.219 37.125V34.8438C125.781 36.2812 123.083 37 120.125 37C117.021 37 114.365 35.9062 112.156 33.7188C109.969 31.5104 108.875 28.8542 108.875 25.75C108.875 22.6458 109.969 20 112.156 17.8125C114.365 15.6042 117.021 14.5 120.125 14.5C121.875 14.5 123.521 14.8854 125.062 15.6562C126.604 16.4062 127.896 17.4375 128.938 18.75L127.125 20.125C125.312 17.875 122.979 16.75 120.125 16.75C117.646 16.75 115.521 17.6354 113.75 19.4062C112 21.1562 111.125 23.2708 111.125 25.75C111.125 28.2292 112 30.3542 113.75 32.125C115.521 33.875 117.646 34.75 120.125 34.75C123.312 34.75 126.01 33.8646 128.219 32.0938V25.4375ZM141.719 25.4375H143.969V48.25H141.719V25.4375ZM137.219 25.4375H139.469V48.25H137.219V25.4375ZM132.719 25.4375H134.969V48.25H132.719V25.4375Z" fill="black"/>
<path d="M166.688 19.4062C164.938 21.1562 164.062 23.2708 164.062 25.75C164.062 28.2292 164.938 30.3542 166.688 32.125C168.458 33.875 170.583 34.75 173.062 34.75C175.542 34.75 177.656 33.875 179.406 32.125C181.177 30.3542 182.062 28.2292 182.062 25.75C182.062 23.2708 181.177 21.1562 179.406 19.4062C177.656 17.6354 175.542 16.75 173.062 16.75C170.583 16.75 168.458 17.6354 166.688 19.4062ZM165.094 33.7188C162.906 31.5104 161.812 28.8542 161.812 25.75C161.812 22.6458 162.906 20 165.094 17.8125C167.302 15.6042 169.958 14.5 173.062 14.5C176.167 14.5 178.812 15.6042 181 17.8125C183.208 20 184.312 22.6458 184.312 25.75C184.312 28.8542 183.208 31.5104 181 33.7188C178.812 35.9062 176.167 37 173.062 37C169.958 37 167.302 35.9062 165.094 33.7188ZM163.5 16.2188C160.875 18.8646 159.562 22.0417 159.562 25.75C159.562 29.4583 160.875 32.6354 163.5 35.2812C166.146 37.9271 169.333 39.25 173.062 39.25C176.792 39.25 179.969 37.9271 182.594 35.2812C185.24 32.6354 186.562 29.4583 186.562 25.75C186.562 22.0417 185.24 18.8646 182.594 16.2188C179.969 13.5729 176.792 12.25 173.062 12.25C169.333 12.25 166.146 13.5729 163.5 16.2188ZM159.406 33.6562C158.01 31.2396 157.312 28.6042 157.312 25.75C157.312 22.8958 158.01 20.2604 159.406 17.8438C160.823 15.4271 162.74 13.5208 165.156 12.125C167.573 10.7083 170.208 10 173.062 10C175.917 10 178.552 10.7083 180.969 12.125C183.385 13.5208 185.292 15.4271 186.688 17.8438C188.104 20.2604 188.812 22.8958 188.812 25.75C188.812 28.6042 188.104 31.2396 186.688 33.6562C185.292 36.0729 183.385 37.9896 180.969 39.4062C178.552 40.8021 175.917 41.5 173.062 41.5C170.208 41.5 167.573 40.8021 165.156 39.4062C162.74 37.9896 160.823 36.0729 159.406 33.6562ZM156.469 18.7812C155.531 20.9896 155.062 23.3125 155.062 25.75C155.062 28.1875 155.531 30.5208 156.469 32.75C157.427 34.9583 158.708 36.875 160.312 38.5C161.938 40.1042 163.854 41.3854 166.062 42.3438C168.292 43.2812 170.625 43.75 173.062 43.75C175.5 43.75 177.823 43.2812 180.031 42.3438C182.26 41.3854 184.177 40.1042 185.781 38.5C187.406 36.875 188.688 34.9583 189.625 32.75C190.583 30.5208 191.062 28.1875 191.062 25.75C191.062 23.3125 190.583 20.9896 189.625 18.7812C188.688 16.5521 187.406 14.6354 185.781 13.0312C184.177 11.4062 182.26 10.125 180.031 9.1875C177.823 8.22917 175.5 7.75 173.062 7.75C170.625 7.75 168.292 8.22917 166.062 9.1875C163.854 10.125 161.938 11.4062 160.312 13.0312C158.708 14.6354 157.427 16.5521 156.469 18.7812ZM154.406 33.625C153.344 31.125 152.812 28.5 152.812 25.75C152.812 23 153.344 20.375 154.406 17.875C155.49 15.375 156.927 13.2292 158.719 11.4375C160.531 9.625 162.688 8.1875 165.188 7.125C167.688 6.04167 170.312 5.5 173.062 5.5C175.812 5.5 178.438 6.04167 180.938 7.125C183.438 8.1875 185.583 9.625 187.375 11.4375C189.188 13.2292 190.625 15.375 191.688 17.875C192.771 20.375 193.312 23 193.312 25.75C193.312 28.5 192.771 31.125 191.688 33.625C190.625 36.125 189.188 38.2812 187.375 40.0938C185.583 41.8854 183.438 43.3229 180.938 44.4062C178.438 45.4688 175.812 46 173.062 46C170.312 46 167.688 45.4688 165.188 44.4062C162.688 43.3229 160.531 41.8854 158.719 40.0938C156.927 38.2812 155.49 36.125 154.406 33.625ZM152.344 17.0312C151.156 19.8021 150.562 22.7083 150.562 25.75C150.562 28.7917 151.156 31.7083 152.344 34.5C153.531 37.2708 155.125 39.6667 157.125 41.6875C159.146 43.6875 161.542 45.2812 164.312 46.4688C167.104 47.6562 170.021 48.25 173.062 48.25C176.104 48.25 179.01 47.6562 181.781 46.4688C184.573 45.2812 186.969 43.6875 188.969 41.6875C190.99 39.6667 192.594 37.2708 193.781 34.5C194.969 31.7083 195.562 28.7917 195.562 25.75C195.562 22.7083 194.969 19.8021 193.781 17.0312C192.594 14.2396 190.99 11.8438 188.969 9.84375C186.969 7.82292 184.573 6.21875 181.781 5.03125C179.01 3.84375 176.104 3.25 173.062 3.25C170.021 3.25 167.104 3.84375 164.312 5.03125C161.542 6.21875 159.146 7.82292 157.125 9.84375C155.125 11.8438 153.531 14.2396 152.344 17.0312ZM150.281 35.375C148.969 32.3125 148.312 29.1042 148.312 25.75C148.312 22.3958 148.969 19.1979 150.281 16.1562C151.594 13.0938 153.354 10.4583 155.562 8.25C157.771 6.04167 160.396 4.28125 163.438 2.96875C166.5 1.65625 169.708 1 173.062 1C176.417 1 179.615 1.65625 182.656 2.96875C185.719 4.28125 188.354 6.04167 190.562 8.25C192.771 10.4583 194.531 13.0938 195.844 16.1562C197.156 19.1979 197.812 22.3958 197.812 25.75C197.812 29.1042 197.156 32.3125 195.844 35.375C194.531 38.4167 192.771 41.0417 190.562 43.25C188.354 45.4583 185.719 47.2188 182.656 48.5312C179.615 49.8438 176.417 50.5 173.062 50.5C169.708 50.5 166.5 49.8438 163.438 48.5312C160.396 47.2188 157.771 45.4583 155.562 43.25C153.354 41.0417 151.594 38.4167 150.281 35.375Z" fill="black"/>
<path d="M1 3.25H3.25V48.25H1V3.25ZM14.5 3.25H16.75V37H33.3438V39.25H16.75V41.5H33.3438V43.75H16.75V46H33.3438V48.25H14.5V3.25ZM10 3.25H12.25V48.25H10V3.25ZM5.5 3.25H7.75V48.25H5.5V3.25Z" stroke="white" stroke-width="2" mask="url(#path-1-outside-1_201_4)"/>
<path d="M55.5 19.4062C53.75 21.1562 52.875 23.2708 52.875 25.75C52.875 28.2292 53.75 30.3542 55.5 32.125C57.2708 33.875 59.3958 34.75 61.875 34.75C64.3542 34.75 66.4688 33.875 68.2188 32.125C69.9896 30.3542 70.875 28.2292 70.875 25.75C70.875 23.2708 69.9896 21.1562 68.2188 19.4062C66.4688 17.6354 64.3542 16.75 61.875 16.75C59.3958 16.75 57.2708 17.6354 55.5 19.4062ZM53.9062 33.7188C51.7188 31.5104 50.625 28.8542 50.625 25.75C50.625 22.6458 51.7188 20 53.9062 17.8125C56.1146 15.6042 58.7708 14.5 61.875 14.5C64.9792 14.5 67.625 15.6042 69.8125 17.8125C72.0208 20 73.125 22.6458 73.125 25.75C73.125 28.8542 72.0208 31.5104 69.8125 33.7188C67.625 35.9062 64.9792 37 61.875 37C58.7708 37 56.1146 35.9062 53.9062 33.7188ZM52.3125 16.2188C49.6875 18.8646 48.375 22.0417 48.375 25.75C48.375 29.4583 49.6875 32.6354 52.3125 35.2812C54.9583 37.9271 58.1458 39.25 61.875 39.25C65.6042 39.25 68.7812 37.9271 71.4062 35.2812C74.0521 32.6354 75.375 29.4583 75.375 25.75C75.375 22.0417 74.0521 18.8646 71.4062 16.2188C68.7812 13.5729 65.6042 12.25 61.875 12.25C58.1458 12.25 54.9583 13.5729 52.3125 16.2188ZM48.2188 33.6562C46.8229 31.2396 46.125 28.6042 46.125 25.75C46.125 22.8958 46.8229 20.2604 48.2188 17.8438C49.6354 15.4271 51.5521 13.5208 53.9688 12.125C56.3854 10.7083 59.0208 10 61.875 10C64.7292 10 67.3646 10.7083 69.7812 12.125C72.1979 13.5208 74.1042 15.4271 75.5 17.8438C76.9167 20.2604 77.625 22.8958 77.625 25.75C77.625 28.6042 76.9167 31.2396 75.5 33.6562C74.1042 36.0729 72.1979 37.9896 69.7812 39.4062C67.3646 40.8021 64.7292 41.5 61.875 41.5C59.0208 41.5 56.3854 40.8021 53.9688 39.4062C51.5521 37.9896 49.6354 36.0729 48.2188 33.6562ZM45.2812 18.7812C44.3438 20.9896 43.875 23.3125 43.875 25.75C43.875 28.1875 44.3438 30.5208 45.2812 32.75C46.2396 34.9583 47.5208 36.875 49.125 38.5C50.75 40.1042 52.6667 41.3854 54.875 42.3438C57.1042 43.2812 59.4375 43.75 61.875 43.75C64.3125 43.75 66.6354 43.2812 68.8438 42.3438C71.0729 41.3854 72.9896 40.1042 74.5938 38.5C76.2188 36.875 77.5 34.9583 78.4375 32.75C79.3958 30.5208 79.875 28.1875 79.875 25.75C79.875 23.3125 79.3958 20.9896 78.4375 18.7812C77.5 16.5521 76.2188 14.6354 74.5938 13.0312C72.9896 11.4062 71.0729 10.125 68.8438 9.1875C66.6354 8.22917 64.3125 7.75 61.875 7.75C59.4375 7.75 57.1042 8.22917 54.875 9.1875C52.6667 10.125 50.75 11.4062 49.125 13.0312C47.5208 14.6354 46.2396 16.5521 45.2812 18.7812ZM43.2188 33.625C42.1562 31.125 41.625 28.5 41.625 25.75C41.625 23 42.1562 20.375 43.2188 17.875C44.3021 15.375 45.7396 13.2292 47.5312 11.4375C49.3438 9.625 51.5 8.1875 54 7.125C56.5 6.04167 59.125 5.5 61.875 5.5C64.625 5.5 67.25 6.04167 69.75 7.125C72.25 8.1875 74.3958 9.625 76.1875 11.4375C78 13.2292 79.4375 15.375 80.5 17.875C81.5833 20.375 82.125 23 82.125 25.75C82.125 28.5 81.5833 31.125 80.5 33.625C79.4375 36.125 78 38.2812 76.1875 40.0938C74.3958 41.8854 72.25 43.3229 69.75 44.4062C67.25 45.4688 64.625 46 61.875 46C59.125 46 56.5 45.4688 54 44.4062C51.5 43.3229 49.3438 41.8854 47.5312 40.0938C45.7396 38.2812 44.3021 36.125 43.2188 33.625ZM41.1562 17.0312C39.9688 19.8021 39.375 22.7083 39.375 25.75C39.375 28.7917 39.9688 31.7083 41.1562 34.5C42.3438 37.2708 43.9375 39.6667 45.9375 41.6875C47.9583 43.6875 50.3542 45.2812 53.125 46.4688C55.9167 47.6562 58.8333 48.25 61.875 48.25C64.9167 48.25 67.8229 47.6562 70.5938 46.4688C73.3854 45.2812 75.7812 43.6875 77.7812 41.6875C79.8021 39.6667 81.4062 37.2708 82.5938 34.5C83.7812 31.7083 84.375 28.7917 84.375 25.75C84.375 22.7083 83.7812 19.8021 82.5938 17.0312C81.4062 14.2396 79.8021 11.8438 77.7812 9.84375C75.7812 7.82292 73.3854 6.21875 70.5938 5.03125C67.8229 3.84375 64.9167 3.25 61.875 3.25C58.8333 3.25 55.9167 3.84375 53.125 5.03125C50.3542 6.21875 47.9583 7.82292 45.9375 9.84375C43.9375 11.8438 42.3438 14.2396 41.1562 17.0312ZM39.0938 35.375C37.7812 32.3125 37.125 29.1042 37.125 25.75C37.125 22.3958 37.7812 19.1979 39.0938 16.1562C40.4062 13.0938 42.1667 10.4583 44.375 8.25C46.5833 6.04167 49.2083 4.28125 52.25 2.96875C55.3125 1.65625 58.5208 1 61.875 1C65.2292 1 68.4271 1.65625 71.4688 2.96875C74.5312 4.28125 77.1667 6.04167 79.375 8.25C81.5833 10.4583 83.3438 13.0938 84.6562 16.1562C85.9688 19.1979 86.625 22.3958 86.625 25.75C86.625 29.1042 85.9688 32.3125 84.6562 35.375C83.3438 38.4167 81.5833 41.0417 79.375 43.25C77.1667 45.4583 74.5312 47.2188 71.4688 48.5312C68.4271 49.8438 65.2292 50.5 61.875 50.5C58.5208 50.5 55.3125 49.8438 52.25 48.5312C49.2083 47.2188 46.5833 45.4583 44.375 43.25C42.1667 41.0417 40.4062 38.4167 39.0938 35.375Z" stroke="white" stroke-width="2" mask="url(#path-1-outside-1_201_4)"/>
<path d="M128.219 25.4375H130.469V48.25C127.135 49.75 123.688 50.5 120.125 50.5C116.771 50.5 113.562 49.8438 110.5 48.5312C107.458 47.2188 104.833 45.4583 102.625 43.25C100.417 41.0417 98.6562 38.4167 97.3438 35.375C96.0312 32.3125 95.375 29.1042 95.375 25.75C95.375 22.3958 96.0312 19.1979 97.3438 16.1562C98.6562 13.0938 100.417 10.4583 102.625 8.25C104.833 6.04167 107.458 4.28125 110.5 2.96875C113.562 1.65625 116.771 1 120.125 1C123.958 1 127.562 1.83333 130.938 3.5C134.312 5.14583 137.156 7.41667 139.469 10.3125L137.656 11.6562C135.552 9.05208 132.969 7 129.906 5.5C126.865 4 123.604 3.25 120.125 3.25C117.083 3.25 114.167 3.84375 111.375 5.03125C108.604 6.21875 106.208 7.82292 104.188 9.84375C102.188 11.8438 100.594 14.2396 99.4062 17.0312C98.2188 19.8021 97.625 22.7083 97.625 25.75C97.625 28.7917 98.2188 31.7083 99.4062 34.5C100.594 37.2708 102.188 39.6667 104.188 41.6875C106.208 43.6875 108.604 45.2812 111.375 46.4688C114.167 47.6562 117.083 48.25 120.125 48.25C122.938 48.25 125.635 47.75 128.219 46.75V44.4375C125.615 45.4792 122.917 46 120.125 46C117.375 46 114.75 45.4688 112.25 44.4062C109.75 43.3229 107.594 41.8854 105.781 40.0938C103.99 38.2812 102.552 36.125 101.469 33.625C100.406 31.125 99.875 28.5 99.875 25.75C99.875 23 100.406 20.375 101.469 17.875C102.552 15.375 103.99 13.2292 105.781 11.4375C107.594 9.625 109.75 8.1875 112.25 7.125C114.75 6.04167 117.375 5.5 120.125 5.5C123.271 5.5 126.219 6.17708 128.969 7.53125C131.74 8.88542 134.073 10.75 135.969 13.125L134.219 14.5312C132.531 12.4271 130.458 10.7708 128 9.5625C125.542 8.35417 122.917 7.75 120.125 7.75C117.688 7.75 115.354 8.22917 113.125 9.1875C110.917 10.125 109 11.4062 107.375 13.0312C105.771 14.6354 104.49 16.5521 103.531 18.7812C102.594 20.9896 102.125 23.3125 102.125 25.75C102.125 28.1875 102.594 30.5208 103.531 32.75C104.49 34.9583 105.771 36.875 107.375 38.5C109 40.1042 110.917 41.3854 113.125 42.3438C115.354 43.2812 117.688 43.75 120.125 43.75C123 43.75 125.698 43.1667 128.219 42V39.6875C125.698 40.8958 123 41.5 120.125 41.5C117.271 41.5 114.635 40.8021 112.219 39.4062C109.802 37.9896 107.885 36.0729 106.469 33.6562C105.073 31.2396 104.375 28.6042 104.375 25.75C104.375 22.8958 105.073 20.2604 106.469 17.8438C107.885 15.4271 109.802 13.5208 112.219 12.125C114.635 10.7083 117.271 10 120.125 10C122.562 10 124.854 10.5312 127 11.5938C129.167 12.6354 130.979 14.0833 132.438 15.9375L130.656 17.3125C129.406 15.7292 127.854 14.4896 126 13.5938C124.167 12.6979 122.208 12.25 120.125 12.25C116.396 12.25 113.208 13.5729 110.562 16.2188C107.938 18.8646 106.625 22.0417 106.625 25.75C106.625 29.4583 107.938 32.6354 110.562 35.2812C113.208 37.9271 116.396 39.25 120.125 39.25C123.042 39.25 125.74 38.5417 128.219 37.125V34.8438C125.781 36.2812 123.083 37 120.125 37C117.021 37 114.365 35.9062 112.156 33.7188C109.969 31.5104 108.875 28.8542 108.875 25.75C108.875 22.6458 109.969 20 112.156 17.8125C114.365 15.6042 117.021 14.5 120.125 14.5C121.875 14.5 123.521 14.8854 125.062 15.6562C126.604 16.4062 127.896 17.4375 128.938 18.75L127.125 20.125C125.312 17.875 122.979 16.75 120.125 16.75C117.646 16.75 115.521 17.6354 113.75 19.4062C112 21.1562 111.125 23.2708 111.125 25.75C111.125 28.2292 112 30.3542 113.75 32.125C115.521 33.875 117.646 34.75 120.125 34.75C123.312 34.75 126.01 33.8646 128.219 32.0938V25.4375ZM141.719 25.4375H143.969V48.25H141.719V25.4375ZM137.219 25.4375H139.469V48.25H137.219V25.4375ZM132.719 25.4375H134.969V48.25H132.719V25.4375Z" stroke="white" stroke-width="2" mask="url(#path-1-outside-1_201_4)"/>
<path d="M166.688 19.4062C164.938 21.1562 164.062 23.2708 164.062 25.75C164.062 28.2292 164.938 30.3542 166.688 32.125C168.458 33.875 170.583 34.75 173.062 34.75C175.542 34.75 177.656 33.875 179.406 32.125C181.177 30.3542 182.062 28.2292 182.062 25.75C182.062 23.2708 181.177 21.1562 179.406 19.4062C177.656 17.6354 175.542 16.75 173.062 16.75C170.583 16.75 168.458 17.6354 166.688 19.4062ZM165.094 33.7188C162.906 31.5104 161.812 28.8542 161.812 25.75C161.812 22.6458 162.906 20 165.094 17.8125C167.302 15.6042 169.958 14.5 173.062 14.5C176.167 14.5 178.812 15.6042 181 17.8125C183.208 20 184.312 22.6458 184.312 25.75C184.312 28.8542 183.208 31.5104 181 33.7188C178.812 35.9062 176.167 37 173.062 37C169.958 37 167.302 35.9062 165.094 33.7188ZM163.5 16.2188C160.875 18.8646 159.562 22.0417 159.562 25.75C159.562 29.4583 160.875 32.6354 163.5 35.2812C166.146 37.9271 169.333 39.25 173.062 39.25C176.792 39.25 179.969 37.9271 182.594 35.2812C185.24 32.6354 186.562 29.4583 186.562 25.75C186.562 22.0417 185.24 18.8646 182.594 16.2188C179.969 13.5729 176.792 12.25 173.062 12.25C169.333 12.25 166.146 13.5729 163.5 16.2188ZM159.406 33.6562C158.01 31.2396 157.312 28.6042 157.312 25.75C157.312 22.8958 158.01 20.2604 159.406 17.8438C160.823 15.4271 162.74 13.5208 165.156 12.125C167.573 10.7083 170.208 10 173.062 10C175.917 10 178.552 10.7083 180.969 12.125C183.385 13.5208 185.292 15.4271 186.688 17.8438C188.104 20.2604 188.812 22.8958 188.812 25.75C188.812 28.6042 188.104 31.2396 186.688 33.6562C185.292 36.0729 183.385 37.9896 180.969 39.4062C178.552 40.8021 175.917 41.5 173.062 41.5C170.208 41.5 167.573 40.8021 165.156 39.4062C162.74 37.9896 160.823 36.0729 159.406 33.6562ZM156.469 18.7812C155.531 20.9896 155.062 23.3125 155.062 25.75C155.062 28.1875 155.531 30.5208 156.469 32.75C157.427 34.9583 158.708 36.875 160.312 38.5C161.938 40.1042 163.854 41.3854 166.062 42.3438C168.292 43.2812 170.625 43.75 173.062 43.75C175.5 43.75 177.823 43.2812 180.031 42.3438C182.26 41.3854 184.177 40.1042 185.781 38.5C187.406 36.875 188.688 34.9583 189.625 32.75C190.583 30.5208 191.062 28.1875 191.062 25.75C191.062 23.3125 190.583 20.9896 189.625 18.7812C188.688 16.5521 187.406 14.6354 185.781 13.0312C184.177 11.4062 182.26 10.125 180.031 9.1875C177.823 8.22917 175.5 7.75 173.062 7.75C170.625 7.75 168.292 8.22917 166.062 9.1875C163.854 10.125 161.938 11.4062 160.312 13.0312C158.708 14.6354 157.427 16.5521 156.469 18.7812ZM154.406 33.625C153.344 31.125 152.812 28.5 152.812 25.75C152.812 23 153.344 20.375 154.406 17.875C155.49 15.375 156.927 13.2292 158.719 11.4375C160.531 9.625 162.688 8.1875 165.188 7.125C167.688 6.04167 170.312 5.5 173.062 5.5C175.812 5.5 178.438 6.04167 180.938 7.125C183.438 8.1875 185.583 9.625 187.375 11.4375C189.188 13.2292 190.625 15.375 191.688 17.875C192.771 20.375 193.312 23 193.312 25.75C193.312 28.5 192.771 31.125 191.688 33.625C190.625 36.125 189.188 38.2812 187.375 40.0938C185.583 41.8854 183.438 43.3229 180.938 44.4062C178.438 45.4688 175.812 46 173.062 46C170.312 46 167.688 45.4688 165.188 44.4062C162.688 43.3229 160.531 41.8854 158.719 40.0938C156.927 38.2812 155.49 36.125 154.406 33.625ZM152.344 17.0312C151.156 19.8021 150.562 22.7083 150.562 25.75C150.562 28.7917 151.156 31.7083 152.344 34.5C153.531 37.2708 155.125 39.6667 157.125 41.6875C159.146 43.6875 161.542 45.2812 164.312 46.4688C167.104 47.6562 170.021 48.25 173.062 48.25C176.104 48.25 179.01 47.6562 181.781 46.4688C184.573 45.2812 186.969 43.6875 188.969 41.6875C190.99 39.6667 192.594 37.2708 193.781 34.5C194.969 31.7083 195.562 28.7917 195.562 25.75C195.562 22.7083 194.969 19.8021 193.781 17.0312C192.594 14.2396 190.99 11.8438 188.969 9.84375C186.969 7.82292 184.573 6.21875 181.781 5.03125C179.01 3.84375 176.104 3.25 173.062 3.25C170.021 3.25 167.104 3.84375 164.312 5.03125C161.542 6.21875 159.146 7.82292 157.125 9.84375C155.125 11.8438 153.531 14.2396 152.344 17.0312ZM150.281 35.375C148.969 32.3125 148.312 29.1042 148.312 25.75C148.312 22.3958 148.969 19.1979 150.281 16.1562C151.594 13.0938 153.354 10.4583 155.562 8.25C157.771 6.04167 160.396 4.28125 163.438 2.96875C166.5 1.65625 169.708 1 173.062 1C176.417 1 179.615 1.65625 182.656 2.96875C185.719 4.28125 188.354 6.04167 190.562 8.25C192.771 10.4583 194.531 13.0938 195.844 16.1562C197.156 19.1979 197.812 22.3958 197.812 25.75C197.812 29.1042 197.156 32.3125 195.844 35.375C194.531 38.4167 192.771 41.0417 190.562 43.25C188.354 45.4583 185.719 47.2188 182.656 48.5312C179.615 49.8438 176.417 50.5 173.062 50.5C169.708 50.5 166.5 49.8438 163.438 48.5312C160.396 47.2188 157.771 45.4583 155.562 43.25C153.354 41.0417 151.594 38.4167 150.281 35.375Z" stroke="white" stroke-width="2" mask="url(#path-1-outside-1_201_4)"/>
</svg>
