<svg width="18" height="15" viewBox="0 0 18 15" fill="none" xmlns="http://www.w3.org/2000/svg">
<path d="M17.0261 2.26015C16.9783 2.1464 16.8979 2.04935 16.795 1.98123C16.6921 1.9131 16.5714 1.87696 16.448 1.87734H14.073C13.788 1.38009 13.3923 0.955117 12.9167 0.63533C12.441 0.315543 11.8982 0.109526 11.3302 0.0332334C10.7621 -0.043059 10.1841 0.0124206 9.64098 0.195376C9.09783 0.378332 8.60408 0.683853 8.19796 1.08828C7.84239 1.43497 7.5597 1.84924 7.36651 2.30673C7.17331 2.76423 7.07351 3.25573 7.07296 3.75234V4.2289C3.89327 3.40078 1.29171 0.838279 1.26827 0.807029C1.18655 0.72663 1.08429 0.670256 0.972682 0.644076C0.861072 0.617895 0.74441 0.622917 0.635462 0.658591C0.52686 0.693153 0.429607 0.756403 0.353976 0.84166C0.278344 0.926917 0.227141 1.03102 0.205774 1.14297C-0.473913 4.90859 0.658899 7.43203 1.72921 8.88515C2.26605 9.61994 2.9176 10.2636 3.6589 10.7914C2.46359 12.143 0.619837 12.8461 0.604212 12.8539C0.516044 12.8866 0.43639 12.9388 0.371187 13.0065C0.305983 13.0743 0.25691 13.1559 0.227624 13.2453C0.198338 13.3346 0.189594 13.4294 0.202043 13.5226C0.214492 13.6159 0.247813 13.705 0.299524 13.7836C0.362024 13.8773 0.5964 14.182 1.16671 14.4711C1.87765 14.8227 2.81515 15.0023 3.94796 15.0023C9.45577 15.0023 14.0652 10.7602 14.5339 5.29922L16.8933 2.94765C16.9781 2.85729 17.0355 2.74476 17.059 2.6231C17.0825 2.50143 17.0711 2.3756 17.0261 2.26015ZM13.487 4.58047C13.3781 4.68845 13.314 4.83351 13.3073 4.98672C12.987 9.90078 8.87765 13.7523 3.94796 13.7523C3.11984 13.7523 2.54171 13.643 2.13546 13.5102C3.0339 13.0258 4.2839 12.182 5.0964 10.9711C5.14356 10.8978 5.17488 10.8155 5.18833 10.7294C5.20179 10.6432 5.19708 10.5553 5.17452 10.4711C5.15178 10.3861 5.11155 10.3067 5.05639 10.2381C5.00124 10.1695 4.93238 10.1131 4.85421 10.0727C4.8464 10.0648 3.69015 9.46328 2.69796 8.09609C1.57296 6.54922 1.0964 4.6664 1.2839 2.49453C2.51827 3.51015 4.87765 5.1664 7.5964 5.61953C7.68618 5.63395 7.77801 5.62885 7.86564 5.60458C7.95327 5.58032 8.03464 5.53745 8.10421 5.4789C8.17223 5.41939 8.22688 5.34616 8.26458 5.26403C8.30228 5.18189 8.32218 5.09271 8.32296 5.00234V3.75234C8.32413 3.1789 8.52239 2.62329 8.88452 2.17866C9.24664 1.73403 9.75062 1.42741 10.312 1.31019C10.8733 1.19298 11.4579 1.27231 11.9677 1.53488C12.4774 1.79744 12.8815 2.22728 13.112 2.75234C13.1618 2.86403 13.243 2.95888 13.3456 3.02543C13.4482 3.09199 13.5679 3.12738 13.6901 3.12734H14.9401L13.487 4.58047Z" fill="white"/>
</svg>
